<svg height="2500" viewBox="0 0 766.8 1000.4" width="1916" xmlns="http://www.w3.org/2000/svg"><path d="m94.1 72.1v14.8l289.3-49.2 289.3 49.2v-14.8l-289.3-53.6z" fill="#fff"/><path d="m672.7 86.8-289.3-49.2-289.3 49.2.7 48.5s145.4-63.1 288.6-63.1 288.6 63.1 288.6 63.1z" fill="#e30613"/><path d="m383.4 70.3c-180.8 0-288.6 63.9-288.6 63.9l2.2 145.6c0 66.8 21.8 351.1 286.4 505.9 264.7-154.8 286.4-439 286.4-505.9l2.2-145.5c0-.1-107.8-64-288.6-64"/><path d="m661.1 144.7s-94-59.9-277.7-59.9-277.7 59.9-277.7 59.9l2.9 135.1c0 52.9 10.1 336.5 274.8 490.4 264.7-153.9 274.9-437.4 274.9-490.4z" fill="#ffed00"/><path d="m376.9 107.2s-.3 3.1-1 4.9c-.7 1.7-2.5 2.8-2.4 4 .1 1.1 1.3 2.5 3.1 3.4 1.8 1 2.6 1.7 4.4 2.1 1.7.4 3.9 1.7 4.5.3.6-1.5-.3-3.3-1.4-5-1.8-3-2.7-3.7-5.4-7.8-.6-.8-1-1.8-1.8-1.9"/><path d="m363.3 428.8c.2-.5 4.5 2.2 6.7 3.5 4.7 2.8 6.8 4.5 10.9 7.6 3.3 2.5 4.8 3.8 8.1 6.6 4.1 3.5 6.2 6.4 7.3 5.8 1.6-1.9-2.6-7.4-6.2-10.4-3.6-2.9-7.3-5.3-10.1-7.2-3.7-2.4-4-3-9.5-6.7-5.9-3.9-11-8.9-11-8.9l-5.8-4.5-9-7.6-10-9.2-7.5-8.4s-5.8-7.2-6.8-8.5c-1-1.4-3.7-5.8-6-9.6-2-3.3-6-8.6-6.3-9-2.1-2.6-7-1.5-12.6-4.9-6.9-4.1-8.5-7.7-8.5-7.7s-.3-.5-.5-.8c-.3-.3-.8-.7-.8-.7l-3.6-2.5-2.1-1.4s-1.6-1.3-3.5-2.1c-2-.9-6.4-3.4-6.4-3.4l-7.8-5s-3.1-2.5-4.1-3.3-3-1.9-3-1.9-1.2-.6-1.6-.6-2-.2-2-.2-1.5-.4-3 1.4-1.2.8 1.3 11c1 4 .9 18.2 1.9 22.5 1.4 5.6 5.3 12.7 5.6 13.6.4.8.7 3.9.7 3.9s-.1 2.5.1 4.1c1.2 7.3 11.9 2.5 14.3 12.6 2.3 9.9-1.4 19.8-1.4 19.8s-2.3 4.9-5.6 5.7-8.3-6.4-11.9-12.2c-3.6-5.7-6.6-13.2-7.5-15.6-1-2.4-1.4-2.9-2.5-4.7-1.6-2.6-2.9-2.1-4.7-6.2s-.2-5.7-1-9.2c-.5-2-.9-2.2-1.5-5s-1.4-11.7-1.4-11.7l-1.1-8.3s-.4-3.8-.9-6.1c-1.8-8.3-2.4-16.3-2.4-16.3l-.3-3.3-.1-3.4s-.1-1.6.3-3.3 1.2-3.1 1.2-3.1 1.7-2.8 1.9-3.5c.3-.7 3.7-4.7 3.7-4.7s1.8-1.5 4.7-3.3 5.6-1.6 5.6-1.6.8-.1 5.9.5c5.2.7 15.9 3.5 18.5 4.2 2.7.7 5.8 1.8 7.9 3 5.9 3.2 7.7 1.9 3-1.8-3.2-2.5-4.1-3.6-6.6-5.9-2.1-2-3.8-3.3-5.5-5.1-1.6-1.8-6.2-8.6-6.2-8.6l-2.9-4.2s-1.5-1.7-1.8-1.9c-.3-.1-1-.7-1-.7s-1.9.1-3.9-.3-2.9 2.4-2.9 2.4-4.3 7.9-8.6 12.8c-7 7.9-12.1 13.3-14.6 17.5-3.6 5.8-2.8 12.2-4.7 15.2-1.1 1.8-1.7 2-2.3 3.5-1.8 4.6 4.8 7.1 3.3 12.2-2.4 8-21.3 16-23.8 14.7-2.6-1.4-.5-12.3.4-15.8s3.5-8.8 3.8-9c.2-.3.9-1.5 1.1-2.5s.3-3.4.4-4.7.7-3.4.7-3.4.1-.4 1.7-4.1c1.7-3.6 7.8-12.1 12.2-20.2 2.9-5.3 4.1-8.5 7-13.7 2.7-4.9 7.3-12.3 7.3-12.3s1.9-3.8 2.9-5.2c.9-1.4 2.9-4.2 4.7-6.8 1.8-2.7 2.3-4.7 4.7-6.9 2-1.8 3.3-2.8 5.9-3.7 3.8-1.3 6.5-.6 10.4.5 4.1 1.1 6.9 3 9.5 5.2s4.6 4.7 4.6 4.7l1.3 1.9.8.5 2.5 1.6 5.6 3.7s13.4 9.1 14.1 9.6 3.1 2.5 3.6 2.6 4.1-3.7 11.1-8.6c8.1-5.6 11-5.2 13.6-6.6 2.7-1.5 3.8-2.7 5.9-4.8 3.2-3.2 3.2-4.8 6.7-9.2 3.6-4.4 7-6.9 7-6.9s.5-.5 6.9-7.7 9.2-12.7 9.2-12.7l3.5-7s5.1-10.9 6.7-15.3c1.6-4.3 1.6-5.8 1.6-5.8s.3-1.1-1-3.3-2.6-1.2-5-.7c-4.7 1-7.5-.2-12.2-1-4.3-.7-6.6-2-10.9-2.7-4.4-.7-7-1.4-11.3-1-.7.1-2 .3-2.7.5-2.5.8-3.1 1-5 2.1-2.1 1-3.5 1.3-5.9 1.4-1.6 0-2.6.1-4.1-.5-1-.4-1.6-.7-2.5-1.4-.5-.5-.8-.8-1.1-1.3 0-.5-.2-.4.3-1.2.4-.8 1-.9 1-.9l2-.5s2.8-.8 3.1-.8c.3-.1 2.9-1 4.1-1.3 1.2-.4 2.5-1.1 2.5-1.1s.7-1.1.4-1.8-1.9-.8-1.9-.8-2.3.8-2.5.9c-.3.1-3.8 1.2-3.8 1.2s-2.8.6-5 1.1-5.3.8-5.3.8l-1-.3s-1.1-.7-1.2-1.5c-.2-.7-.3-1.2-.4-1.9-.5-2.8-1-4.5-.4-7.2.3-1.1.5-1.8 1-2.8.4-.9.7-1.4 1.2-2.3l1.8-2.8 3.3-4.8c1.1-1.1 1.9-1.7 3.3-2.5 2.1-1.2 3.3-1.5 5.9-1.8s2.9-.3 6.5-1.1 6.2-2.3 6.2-2.3 8.7-3.2 14-5.8c5.6-2.7 8-5.6 13.8-7.9 2.4-1 3.8-1.4 6.3-2 .3-.2.5-.4.6-.8.3-.9-1.2-1.4-2.1-1.3-.8.1-2.8 1-3.3 0-.4-.8 1.8-1.2 1.8-1.2s1-.5 1-1.1c0-.8-1.5-.3-2.1-.4-3.4-.4-3.6-1-6-1.6-2.7-.7-4.2-1.5-7.1-1.6-2.5-.1-4.9.4-6.5.8s-1.6-1.2-1-1.4c4.4-2.1 4.5-2.2 7.6-2.4 1.7-.1 4.1.3 4.4.4s3.7-.1 4.5-.9c.9-.9-2.8-.8-4.5-1.5-1.6-.7-4.1-.8-4-1.9s1.2-.5 2.1-.7c1.1-.3 1.7-.3 2.8-.4 2-.3 2.1-.4 5-.7s7 1 7 1 4.3 1.9 6.5 3c2.1 1 4.7 1.5 4.7 1.5s3 .4 5.3-1 1-2.4.2-3.7-1.8-3-.3-6.4c1.3-3 2-6.4 2.4-6.7.4-.4 2.3 2.3 3.5 3.4 4.2 4 9.9 5.9 15.1 14.2.4.7 2.4-.4 8.6.5s11.5 7.5 12.9 9.1 3.2 1.5 3.2 1.5l2.9.4 10.7.2s4.9-.9 7.7.2c2 .7 8.5 5.1 5.5 6.8-2.1 1.2-4.1-1.4-5.9-1.5-2.2-.2-3.2.3-5.2.8-4.1 1.1-13.1 3.8-9.9 4.8.3.1.7.2.7.2l1.6.3s3.9.9 6.3 1.8c3.6 1.4 5.2 3 8.6 4.9 1.9 1.1 2.7 2.2 4.8 2.8 1.9.6 3.1 0 5 .3 2.5.4 4 1 6.3 2.1 3.4 1.7 4.7 3.7 7.8 5.9 1.5 1.1 2.9 1.3 4 2.8.3.3.5.5.6.9.4 1.4-2.3.6-3.7.3-1.6-.3-2.2-1.1-3.7-1.7-2.1-1-3.2-2.1-5.5-2.6-1.7-.3-2.7 0-4.5 0-1.7.1-2.6.4-4.3.4-2.9 0-4.5-.2-7.3-.8-3.2-.7-4.7-1.9-7.9-2.6-3.5-.7-9.9-3.8-9.2-.8.3 1.5 3.7 2.7 3.7 2.7s2.3 1.3 4.5 2.2c2.2 1 3.4 2.4 3.4 2.4l1.5 1.1s1.6 2.2 3.6 4.5c2 2.4 5.5 2.3 5.5 2.3s2.1 0 6.7 1c4.6.9 9.3 3.8 9.3 3.8s3.6 2.5 5.6 4.9c2.1 2.4.9 3.7.6 3.9-.3.3-.2.1-.4.3-.2.1-2.8-3.1-2.8-3.1l-1.8-1.6s-1.8-1.3-4.1-2c-2.3-.8-3.1-.3-3.1-.3s-4.9 1.4-9.2 1.2c-4.3-.1-6.5-1.8-6.5-1.8l-2.7-1.8s-4.1-3.8-4.2-2c-.1 1.2 1.8 2.6 1.8 2.6l2.2 2.2c1.6 1.6 2.3 2.4 4.2 4.1s3.1 1.7 3.1 1.7 1 .3 1.4.3c.4.1 1.1.3 1.1.3s.6.2 3.6 1.4c2.9 1.2 6.1 3.8 6.1 3.8s.3.3.7.3c.4.1 1.3.5 1.6.6.2.1 1 .1 2.7.3 1.7.3 1.1 1.3 1.1 1.3l-.3.4-1.4.9s-1.8.5-3.1.6c-1.2.1-3-.6-3-.6l-3.8-1.4s-3.8-1-4.7-1.1c-.8-.1-4.3-.8-4.8-.9-.6-.1-2.3-.8-2.8-1-.4-.3-1.3-.4-3.4-1.4s-2.9-2.2-5.5-3-4.1-1-6.1.4c-3.3 2.3 5 2.7 9.2 4.7 6.1 3 9.6 5.3 11.1 8.5 1.5 3.3 3 4.5 3 4.5s4.3 2.2 6.3 4.5c1.1 1.2 1.2 2.3 2.3 3.5 2.4 2.8 7 2.6 7.9 5 .9 2.2-3.7 1.2-6.1 1-4.3-.4-5.3-4.4-9.4-5.9-2.3-.9-3.7-.9-6.1-1.7-4.2-1.4-6.2-3.3-10.4-4.5-2.6-.8-7.2-4.2-6.7-1.6.1.6.5 1.1.7 1.5s1.2 1.8 1.2 1.8 1.5 1.9 2.1 2.4 3.4 2.6 7.3 4.7 7.3 6.2 7.3 6.2 1.2 1.7 1.7 2.8c.6 1.3.2 1.7 1.1 3.5s1.3 2.2 2.5 3.3c2.8 2.8 5.8 2.2 9.5 3.7 1 .4 1.1.5 2.1 1.7 1.1 1.1-.2 1.6-.2 1.6s-4 1-6.7.8c-3.4-.3-4.9-1.3-8.2-3-3.3-1.6-5.1-4.6-5.4-4.8s-1.1-1.1-1.8-1.5c-.6-.4-2.2-.8-3.7-1.2s-2.3-.5-3.8-.9c-2-.5-4.1-1.4-5-1.8-1-.3-3.1-.7-4.7.2-3.1 1.9 4.9 3.1 7.4 5.8 1.3 1.4 1.8 2.3 3 3.7.9 1.1 1.3 1.9 2.5 2.7.8.6 2.2 1.2 2.2 1.2s1.9.9 4.8 2.5c2.8 1.6 6.2 6 6.2 6l2 3.1 1.2 1.8.3.8.4 1s1.4 1.9 2.5 2.5.9 1.2.9 1.2-.1.4-.9.8-1.1.1-2.2-.3c-1.1-.3-1.8-1.3-2.7-2.1-1-.8-2-2.6-3.7-3.7-1.5-.9-3.5-1.3-4.3-1.5-.8-.3-2.6-1.5-3.4-1.8-.7-.3-2.7-1.2-2.7-1.2s-3.8-2.1-5.9-2.7-.8.7-.8.7 1.9 2.9 3.7 4.1c2.3 1.5 5.6 2.9 4.5 4.1-.7.8-1.7.5-2.8.4-1.7-.2-3.8-2.3-3.8-2.3s-.9-.6-4.8-1.8c-3.9-1.3-2.5.9-1.6 2s2.1 1.8 2.1 1.8l2.6 1.2 1.2.4s1.1.2 4.6 1 5.5 2.5 5.5 2.5 1.9 1.8 4.5 3.7 5.3 2.5 6.7 2.6c1.4.2 1.4 1.2 1.4 1.2s.2.9.1 1.2-.4.6-.7.6-.4.1-.8.3-1.9.4-1.9.4-4-.1-7-.9c-3.1-.8-5.8-2.9-6-3-.3-.1-3.1-1.7-5.1-2.3-1.9-.6-5-.4-5.3-.2-.3.1-1.4.3-3.2.8s.4 1.2.4 1.2l1.3.1 3.1.3s3.2.4 6 1.4c2.7 1 4.5 3 6.3 4.8s3.8 3 3.8 3l1.4 1 .8.5.2.5-.2.6c-.1.3-.6.5-.6.5s-.7-.1-1-.1-2.4-1.1-3.9-1.8c-1.6-.7-2.4-1.3-4.1-1.8-1.5-.4-3.4-.5-3.8-.4s-3.6.6-6.1.8-4.6.2-7.5-.1c-4.1-.5-9.6-3.8-10.3-2.9-1.4 1.9 3 2.5 5.1 3.7 2.9 1.7 7.9 3.2 7.9 3.2s3.7.8 5.8 1.8c4.7 2.2 6.2 5.4 9.9 8.9 2.1 1.9 3.8 2.7 6.6 3.1 2.4.4 2.4.1 6.2-.7s6.2-4.4 7.3-3.1c.2.3.1.5.1.9-.1.4-.4 1.1-.4 1.1s-.4.6-1.1 1.3-3.3 2.1-4.7 2.7-4.8 1.5-9 1.4c-4.3-.1-10.2-3.4-10.2-3.4l-4.3-1.8s-2-1-3.3-1.4c-3.6-1.4-5.9-1.2-9.5-2.2-2.3-.6-3.8-1.3-5.8-1.7-2.1-.4-.9.4-.7.7 1 1.3 2.3 1.7 3.9 2.5 2.2 1.1 3.7.8 6 1.8 2.5 1 4.7 2.5 6 3.3 1.4.9 2.4 1.9 3.7 3.3l4.6 3.9s1.1.9 1.2 1.2c.1.4.6 1.3.4 2.8-.3 1.5-1.5.4-1.5.4l-1.2-.8-1.2-1.1-1.9-1.6s-1.6-1.5-4.4-2.9-6.2-1.8-6.2-1.8-3-.4-2.9.5.8 1 3.2 1.6 4 1.8 4 1.8 2.5 1.8 4.2 3.8c1.8 2 2.3 4 2.3 4s.9 1.6 3.1 3.8 3.4 1.5 3.3 2.5-1.1 1.2-1.1 1.2-.6-.1-.8-.1c-.3 0-.8-.3-1.4-.5-.6-.3-3-1.9-3-1.9s-3.7-3-4.1-3.3-4-2.9-4-2.9-2.1-1.3-3.6-2.1-3.5-1.5-4.7-1.9c-1.1-.4-3.2-.5-3.2-.5s-2.5-.4-4-.9c-2.4-.9-5.2-3.5-5.5-3.6s-2.6-.9-3-.8-1.4 4.3-1.7 6.7c-1 10.2 1.7 17 5.9 26.3 6.1 13.6 23 30.5 23 30.5s4.2 2.4 6.1 3.8c5.1 4 13.4 9.6 20.8 17 6.3 6.3 14.8 17.6 14.8 17.6s4.9 6.8 7.1 11.6c2.8 5.9 5 14.9 5 14.9s.2 1.6.4 1.9.6.7.9.7l2.9.1c.3 0 3.7-.3 5.9-.8s7.4-2.9 10.9-4.8c3.4-1.8 7.6-5.3 7.6-5.3s.8-.7 4.8-5.2 6.7-11.3 7.6-13.8c1-2.5 1.8-7.4 2.4-15.8.6-8.3-.5-17.2-.5-17.2s-1.5-12.3-2.5-16.5c-.9-4.2-3.1-11-3.1-11s-1.5-6.1-2-9.9-.6-10.1-.6-10.1 0-3.8 1.2-10.9 5.6-14.1 5.6-14.1 1.2-2.4 5.9-8c4.8-5.7 6.3-6.6 11-10 3.7-2.7 8.6-7 10.1-6 1.7 1.1-1.7 3.3-2.9 4.4-2.9 2.9-8.4 8-12.9 15.8-3.8 6.7-5.3 11.1-6.2 15.5-1 4.4-.6 9.2-.4 10.8.1 1.6 1 1 1 1s9.4-7.6 14.5-13.3c5.5-6.2 10.5-17.2 12.4-17.3 1.3-.1 1.9 2.9 1.6 4.2-1.2 5.7-1.6 6.4-3.5 10.2-2.2 4.4-4.1 6.3-7.1 10.3-3.1 4.2-4.6 5.9-7.1 11.4-3.6 8-1.5 14.2-1.5 14.2s.4 3.8 2.1 3.7c2.8-.1 9-7.9 13.1-14.4 3-4.7 4.1-10.2 6.1-13 1.8-2.5 3.3 4.1 2.6 8.1-.9 4.7-3.2 8.8-8.2 15.4-5 6.4-4.8 12.6-4.8 12.6s-.5 2.8-.9 8.9 1.4 15.3 1.4 15.3 1.6 7.7 1.9 13.6c.3 5.8.1 19.2-5.4 29.6-2.2 4.2-6.9 9.9-6.9 9.9s-3.6 3.7-6.6 5.9-10 5.5-10 5.5-4.9 1.7-5.6 1.9-1.1.8-1.1.8.5 1 .6 1.3c.2.4 1.6 3.8 1.6 3.8s1.5 4.8 2 8.6-.1 4.7-.7 7.6c-.5 2.8-1.7 1.5-2.1 7-.3 4.8 1.9 7.3 1.5 12.7-.2 2.4-2.9-3-4.2-5.2-2.8-5-2.1-12.6-2.2-14.4s-.2-4-.9-6.4c-.9-3.1-2.1-5.5-3.6-7.3-1.5-1.9-3-2.9-3.5-2.8-.5.2-.5 1.2-.6 1.7 0 .5 1 2.3 1.2 2.7s2.1 3.7 2.1 3.7.8 2.5 1.1 7.5-1.2 11.1-1.2 11.1-2 6.9-4.1 11c-2.3 4.5-7.5 10.6-7.5 10.6s-3.7 3.4-6.5 8.9c-2.8 5.6-.4 8-1.4 8.7-1.1.7-3.3-3.2-3.8-5.9-.5-2.5-.3-3.6.7-6.4 1-2.6 3.2-6.5 3.2-6.5l3.3-5.7s4-7.6 5.2-13.2c1.3-5.6-.1-11.7-.1-11.7s-.2-2-1.6-1.9-2.4 1.3-2.9 2.8c-1.2 3 .5 2.5-1.3 7.5-1.4 4-1.8 3.5-2.5 5.8-.9 2.9-1.3 5.8-1.3 7.5.1 1.8-.9 1-.9 1s-1.7-3.2-1.7-7.1c0-2.1.1-3.3.3-5.5.4-3.4 1.8-8.6 1.8-8.6s1.5-5.2 1.2-9.9-2-5.6-2-5.6-.4-.6-2.2-.5-1.8 3.4-1.8 3.4-.5 4.7-1.3 7.5c-2 8.1-4.7 12.3-9.5 19-4.3 6.1-10.1 11.5-13 14s-11.9 9.1-11.9 9.1l-10.5 7s-4.2 4.1-6.1 8.9-1.8 8.6-.7 13 2.7 6.5 3.6 7.7c.8 1.2 2.5 3.4 3 5.9.3 1.6.1 2.5.2 4.1.1 1.4.3 2.2.3 3.6 0 2.2.4 3.8-.9 5.6-1 1.4-3.5 2.6-3.5 2.6s-2.8 1.3-4.5 2.3c-17.9 10.8-24.2 17.8-34.3 29.8-3.2 3.8-.9 3.6-4.3 8.2-2.1 2.7-6.8 2.7-8.6 5.9-2.4 4.4 5.4 8.8-3.6 12.7-11.6 5-31.7 1.4-32.1-.1-1.1-4.4 3.9-9.3 5.7-11.3 8.2-8.9 15.5-9.2 18.1-16.5.6-1.6.4-2.9 6.9-7.7 4.6-3.4 22.8-17.1 30.8-26.3 2.7-3.1 5.1-5.2 6.3-8.6s-1.2-5.6-1.2-5.6l-3.3-5.3-6.3-11.2s-2.6-5.9-4.1-9.4c-1.4-3.4-4.2-12.7-4.2-12.7s-2-8.3-2.3-13.7c-.6-9.7.7-15.4 3.3-24.8 3.3-12.3 10.9-17.4 13.9-29.5.9-3.5 1.1-9.6-.7-9.3-1.7.3-1.8 5.1-3.1 8.3-4.8 12-11.2 17.3-14.7 29.8-2.4 8.4-3.3 13.4-3.3 22.2 0 5-.2 4.1 1.1 12.8.5 3.2 1.3 4.9 2.2 8.1.7 2.2 2.5 6.4 2.5 6.4s2.5 5.5 3.4 9.4c.3 1.3.6 2.1.5 3.4-.1 2.3.2 2.8-.9 4.9-1.4 2.6-.5 4.1-4.9 5.1-3.9.8-11.9-1.8-11.9-1.8s-32.9-10-53.9-7.1c-4.2.6-6.4 2.1-10.6 2-3.8-.1-5.8-3-9.6-1.9-.8.2-1 .8-1.7 1.2-5.6 3.9-1.3 10.3-16 7-9-2.1-19.9-7.5-18-11 2.5-4.6 5.9-5.3 13-8.3 7.6-3.1 19-2.2 21.3-2.4 2.7-.2 6.7-2.1 11.6-2.2 8.5-.1 10 .8 10 .8l14.4 1.3 27.6.4s4.9-.4 6.9-.8 3.6-4.3 4.6-6.1c1.1-1.8 0-4.6 0-4.6l-.8-1.3-2.6-4.2-4.9-8.2-5.4-10.7s-3.5-7.5-5.4-12.4-3-7.6-4.2-12.7c-1.3-5.2-2.1-9.4-2.2-13.6-.5-6-.9-10.7.8-15.6"/><path d="m542.5 418.8c5.8-7.5 6.4-14.4 6.7-24.1.3-7.1-2.4-18-2.4-18l-.4-.8s-1-1.3-1.7.4c.1 1.5.3 2.8.3 2.8l.4 14.1s-.5 7.1-2.9 14.4c-4.1 12.3-14.9 17.8-16.4 22.3-2.6 7.3 9.5-2.1 16.4-11.1m-60.9 22.8s-2.4.7-2.4 3 .6 4.4.5 7.2c-.1 3.6-3.4 7.8-1.2 9.1 3.7 2.3 6.8-14 5.7-16.5-1.1-2.3-2.2-2.8-2.6-2.8m-41 113.4s-.7-.4-2 .1-1.2 1.9-1.2 1.9-.3 1.4.8 1.6c1.1.1 2.8-2.4 2.8-2.7s-.4-.9-.4-.9m-38.5 27.4s-.4.4-.1.7c.4.3.8-.1.8-.1s6.7-5.2 10.6-8.9c4.2-3.9 10.2-10.6 10.2-10.6s.4-.5-.1-1c-.5-.4-1.6.2-2.5.7-.8.4-1.3.9-1.9 1.4s-2.6 2.5-2.6 2.5l-5.2 5-3.2 3-3.2 3-1.3 1.5s-.3.6-.4.7-.4.6-.4.6-.5.5-.5.6-.2.3-.2.4c.1.3 0 .5 0 .5m-11.6 7.6s-.7-.6-1.9 0c-1.1.6-2.3 2.2-2.4 2.3-.1.2-.7 1-.3 1.8.4.7 1.9-.4 2.1-.4s2.1-1.5 2.1-1.5 1.1-.7.4-2.2m-22 22.3s-.9-1.8-2.2-1c-1.2.7-1.9 1-3 2.5-.2.3-1.4 1.8-1.6 2.2s-1.4 2.7 1 2.9c4.3.3 1.5-2.5 2.9-3.5 1.2-.8 3.4-.6 3.4-1.5.1-.8-.5-1.6-.5-1.6m-75.5-89.2s-2.6.6-2.7 1.5c-.2.9 1.5 1.8 1.8 1.8s.9.7 2.6-.4 1.6-2.1 1.6-2.1.9-1.1-3.3-.8m41.5-1.3s0-.9-1.9-.8c-1.8.1-2.2.4-2.3.7 0 .3.1.7 1.7.9 1.8.1 2.5-.1 2.5-.8m39.3 1.1c-3.3 0-2.2.1-4.3.2-3.7.2-5.7 0-9.3-.2-5.1-.3-13-1.6-13-1.6s-1-.2-1.4.4 1 2 2.2 2.4c6.4 2 6.8 1.6 11.2 1.7 2.5 0 3.8-.2 6.3-.4 3.1-.2 4.5.3 7.9-.6.8-.2 1.6-1.8.4-1.9m22.1-6.5s-.7-.8-2-.1c-1.4.7-2.2 2.2-2.2 2.2s-.6 1 .7.8 2.5-.7 2.9-1c.3-.2 1.3-1.1.6-1.9m-19.3-265.5s9.4-8.8 16-20.3c4-6.9 5.7-23 2.3-19-1.5 1.8-3.4 10.2-6.3 16.3-4.2 8.8-13.2 21.2-13.2 21.2s-1.9 4.2 1.2 1.8m-37.3 22.2s-1 .8-.5 2c.5 1.3 2.4.3 2.4.3s4.3-1.6 8.8-1.8 10.8 1.2 10.8 1.2 3 .8 3.5 1 2.1 1 2.4 1.1 1.8.9 2.7.1-5.5-6.5-11.9-7.4c-10.7-1.5-17.8 3.2-17.8 3.2zm-44.3 37.9c.8.6 4.4-6.2 7.4-10.5 2.2-3.2 6.2-8.5 6.2-8.5s1.8-2.4-1.3-1.1c-1.3.5-4.7 3.1-7.1 7.9-2 4.1-6 11.5-5.2 12.2m-24.9-29.8s-.8 2.6 2.3 6c3.1 3.3 3.9 6.1 5.9 4.1.5-.5-1.9-5.1-3.2-6.3s-2.2-2.3-2.2-2.3l-.8-.7-1-.5-.6-.3c0 .1-.2-.1-.4 0m-10-25.4s-3.4.6-4.2 2.3c-.8 1.6 3.9.6 3.9.6s3.1.2 3.2-1c0-1.2-.5-1.4-2.9-1.9m-53.5 88.6c-1.7-.5-2 2.9-2.2 4s.7 3.3 1.1 3.3 1.8-2.2 1.8-3.2c.2-1.1.8-3.6-.7-4.1m55.5 66s-3.1-2.4-3.5-1.5c-.5 1 2.5 5.2 2.5 5.2s.9 1.4 2.3.8c1.4-.7.9-2.2.9-2.2s-.9-2-2.2-2.3m-23.1-71.4s-.8-.2-1.1.7c-.3 1-.3 2.5-.5 4.4-.2 1.5.4 5.3.4 5.3s.3 3.1.9 4.9c.7 2 2.4 4.8 2.4 4.8s.7 1.5 1.5 1.4.6-1 .6-1-2.6-10.2-2.6-11.3c-.3-3.4-.3-7.5-.3-7.5v-.6s0-1.1-1.3-1.1m4-31.1s-1.4-.3-2.7 2.5c-1.3 2.7-1 3.9-.9 4s1.2.1 2.8-2.4c1.7-2.6 1.3-3.5 1.3-3.5s-.2-.6-.5-.6m38.9 28.2s1.7 2.5-1.6 1.9-10.2-6-13-7.5-7.3-2-5.4-3.6c.4-.3.4-.6 1-.6s2.5.7 2.6.8 5 2.1 5.2 2.1c.2.1 2.9 1.2 4.8 2.4 1.9 1.1 5.1 3.3 5.1 3.3zm90.8 78.1c.9 2.8-10.3-5.9-16.3-10.6-15.9-12.3-35.5-37.4-33-39.6 2-1.8 10 9.7 21.7 22.4 12.5 13.5 27.1 26.2 27.6 27.8m46.9-12c-3.5 3.7-4.7 8.5-2.7 12s2.6-5.1 4.8-7.6c1.9-2.2 3-1.8 6.1-4 5.2-3.7-3.8-5.1-8.2-.4m-20-79.4c-2.4-.4-2.3 3.2-1.9 5.8 1.6 11.5 6.8 20.4 13.7 28.8 4.2 5.1 15.8 14.2 17.1 12.7.5-.5-11-9.4-18.3-20.8-5.2-8.1-7.9-14.9-8.6-21.6-.1-.7.1-4.6-2-4.9m-44.7-171.1c-5.2 2.8-14.2 5.3-14.2 5.3s-.4.9.7.8c7.7-.6 10.7-1.6 14.8-3.4s7.1-6.7 7.1-6.7 1.6-3-1.5-.5c-.8.7-4 2.9-6.9 4.5m62.8-19.9s-1.8-.4-3 .4c-1.2.7-.8 1.3-.8 1.3s1.8 1.4 3.1 1.6 4.1 1.4 4 .5c-.1-1-1.7-2.7-2.2-3.2-.5-.4-1.1-.6-1.1-.6m-29.5 54.3c.3.6 5.6-.8 7.6-1.9 1.6-.9 2.2-3.9 2.2-3.9s.4-2.9-.2-1.8c-3.1 4.9-9.9 6.9-9.6 7.6m-.2-13.6c2.1-4.1-5.9 4.3-9.9 6.4-2.5 1.3-6.5 3-6.5 3s-1.1 1.3.4 1.2 5.3 1.2 8.4-1.2c.7-.6 3.9-5.2 3.9-5.2s2.7-2.2 3.7-4.2m-1.2 17.4c.1.7 9.1.4 11.4-.2 1.8-.5 2.7-3.6 2.7-3.6s1.1-2.7.2-1.8c-4.2 4.1-14.5 4.9-14.3 5.6m-143.7 81.9s-1.4-.5-3 2.1c-1.7 2.5-9.2 13.9-7.9 15.6 1.6 2 8.1-10.2 10.1-12.5s1.2-4.6 1.2-4.6 0-.5-.4-.6m164 206.2c-.8 3.8.2 11.5 1.5 13.1 3.2 3.8 1.2-6 1.7-9.5.4-3.2.8-4.3 2.4-7.8 2.7-6.1-3.9-3.8-5.6 4.2m-27.5-330.4s-2.5.1-4.4 1.1c-1.9 1.1-2.5 2.6-2.5 2.6s-.4 1.1-.1 1.7c.6 1.3 3.2-.7 5.1 0 1.5.5 2.2 1 3.4 2.4 1 1.2 2.8 3 3.9 2s.7-3.5.7-3.5-1.3-4-3.1-5.2c-1.6-1.2-3-1.1-3-1.1m-41.2 28.4s-1.4.2-1.1 1.9 1.2 1.4 1.2 1.4 2.9-1.2 2.7-2.9c-.1-1.8-2.8-.4-2.8-.4m-20.1-9s-1.5 0-2.6 1.9-1.7 3.8-1.7 3.8-.5 2.5.4 3.2c.9.8 1.8-1.6 3.1-2.5.8-.5 1.2-.8 2-1.4 1.1-.7 2.8.2 2.7-2-.1-2.1-2.4-3.1-3.9-3m65-23.4s-3.4-.5-3.3.8c.1 1.2 1.9.5 3 1s1.8.7 2.7 1.5c.6.6.6 1.7 1.4 1.7 1.1 0 .9-.4.9-.4s-1-3-2.3-3.8c-1.4-.9-2.4-.8-2.4-.8m38.2 13.8c-.5 1.8-.8 2.5-.8 2.5s-1 3.8 2.9 2.4c3.8-1.4 1.8-.8 4.6-2.2 2.7-1.3 2.6-.6 4.7-.5.7 0 1.1.1 2.1-.1.9-.2.5-1.2-1.4-1.7-2.1-.5-4.6-.4-7.6-.4-1.8-.1-4-1.9-4.5 0m1.7-14s-1.8-.4-3 .4c-1.2.7-.8 1.3-.8 1.3s1.8 1.4 3.1 1.6 4.1 1.4 4 .5c-.1-1-1.7-2.7-2.2-3.2s-1.1-.6-1.1-.6m6.8 26.2s-1.9-.4-3.2.3-.9 1.3-.9 1.3 1.9 1.3 3.4 1.5c1.4.2 4.4 1.3 4.3.4s-1.8-2.6-2.4-3c-.6-.3-1.2-.5-1.2-.5m.5 9.6s-2-.4-3.3.4c-1.4.8-1 1.5-1 1.5s2.1 1.5 3.6 1.8c1.5.2 4.7 1.5 4.5.5-.1-1-1.9-2.9-2.5-3.4-.6-.7-1.3-.8-1.3-.8m.9 9.3s-2.2-.5-3.6.4-1 1.6-1 1.6 2.2 1.8 3.9 2c1.6.3 5.1 1.8 4.9.6-.1-1.2-2.1-3.3-2.7-3.9-.7-.5-1.5-.7-1.5-.7m-.2 11.5s-2.2-.5-3.6.4c-1.5.9-1 1.6-1 1.6s2.2 1.8 3.8 2c1.6.3 5.1 1.8 4.9.6-.1-1.2-2.1-3.3-2.7-3.9-.7-.5-1.4-.7-1.4-.7m-1.6 22.4s-2.2-.5-3.6.4c-1.5.9-1 1.6-1 1.6s2.2 1.8 3.8 2c1.6.3 5.1 1.8 4.9.6-.1-1.2-2.1-3.3-2.7-3.9-.6-.5-1.4-.7-1.4-.7m1.5-11.2s-2.5-.5-4.2.5c-1.7 1.1-1.2 1.9-1.2 1.9s2.6 2 4.5 2.3c1.8.3 5.9 2 5.7.7s-2.4-3.8-3.2-4.5-1.6-.9-1.6-.9m-2.5 21.3s-1.8-.4-3 .4c-1.2.7-.8 1.4-.8 1.4s1.8 1.4 3.2 1.6c1.3.2 4.2 1.4 4.1.5-.1-1-1.7-2.7-2.3-3.2s-1.2-.7-1.2-.7m-1.7 9.7s-1.5-.3-2.5.3-.7 1.1-.7 1.1 1.5 1.2 2.6 1.4 3.5 1.2 3.4.4-1.4-2.3-1.9-2.7c-.4-.3-.9-.5-.9-.5m-2.1 8.9s-1.3-.3-2.2.3-.6 1-.6 1 1.4 1.1 2.4 1.2 3.1 1.1 3 .4-1.3-2.1-1.7-2.4c-.4-.4-.9-.5-.9-.5m-2.1 7.3s-1.3-.3-2.2.3-.6 1-.6 1 1.4 1.1 2.4 1.2 3.1 1.1 3 .4-1.3-2.1-1.7-2.4c-.5-.4-.9-.5-.9-.5m-2.5 8.4s-1.1-.2-1.8.2c-.7.5-.5.8-.5.8s1.1.9 1.9 1 2.5.9 2.5.3c-.1-.6-1-1.6-1.4-1.9s-.7-.4-.7-.4m-3 7.9s-.9-.2-1.5.2-.4.7-.4.7 1 .7 1.6.9c.7.1 2.2.7 2.1.3-.1-.5-.9-1.4-1.2-1.7-.3-.4-.6-.4-.6-.4m-3.2 7.5s-.9-.2-1.5.2-.4.7-.4.7 1 .8 1.6.9c.7.1 2.2.7 2.1.2s-.9-1.4-1.2-1.7-.6-.3-.6-.3m-202.6 38.1s-1.6 3-.8 4.7 2.9-2.7 2.9-2.7 2.2-4.3 1.3-5.1-1.4 1.4-3.4 3.1" fill="#fff"/><path d="m330.2 586.9s-1.2-1.5-2.3-.4-2.5 2.9-5.1 2.7-3.7-.6-5.1-1.2-3.4-1.6-3.4-1.6-5.2-2-9.7-2.1c-4.4-.1-11.7 1.7-15.2 5.5s-4.4 7.7-4.4 7.7-1.2 6.9.8 10.1 4.2 6.6 9.1 9.6 7 4.1 7 4.1l8.5 3.9 7.8 3s11.3 3.4 12.7 11.9c1.4 8.6-3.8 19.6-19.4 20.7-15.4 1-22.9-6.5-25.3-11.3s-1-8.9-1-8.9l.7-1.3.6-.3s2.4 1.6 4.7 1.3 6.7-3.1 5.8-7.7-5-5.6-7-5.5c-2 .2-10.8 2.5-11 15.3s11.5 19.6 11.5 19.6 8.3 5.2 17.6 4.7c9.3-.4 17.1-4.1 17.1-4.1s13.8-6.9 14.2-21.9-9.2-20.3-9.2-20.3-3.4-2.4-6.5-3.8-10.6-5-10.6-5l-7.6-3.5-4.6-2.6-2.6-1.7s-6.2-4.8-2.9-10.1 12.8-3.3 12.8-3.3 7.4 1.6 13.1 5.7c5.8 4.1 9.1 9.1 9.1 9.1l2.4 3.9.3.5 2-.7s-3.2-8.9-3.8-12.6c-.5-3.7-1.1-9.4-1.1-9.4m91.2 50.7s2 2.3 4.8 2.3c2.7 0 6.7-1.9 6.6-6.9s-5.1-6.3-5.1-6.3-7.6-1.8-11.3 5.9-1.7 14.4-1.7 14.4 1.7 10.4 12.7 16.6 22.8 1.6 22.8 1.6 8.9-2.9 16.5-11.6c7.7-8.6 11.3-18.9 11.3-18.9l2.7-6.7 3.2.1s4.5.4 7.7-2.2 5.1-6.1 5.1-6.1l.4-1.1-2-1s-2.3 3-5.6 3.3c-3.2.3-6.6-.2-6.6-.2l3.1-8.3s3.6-7.3 4.6-8.9c1-1.7 5.2-7.1 5.2-7.1s8.6-.1 17-1.8c8.3-1.7 13.5-3.8 13.5-3.8l10.3-4.2 2.5-1.4-.8-2s-9.3 3.3-23 4.8c-13.7 1.6-22.3-.1-22.3-.1l-15.6-2.4s-4.7-.8-8.4-.8c-3.7-.1-11.1 1.3-11.1 1.3s-7.4 1.7-10.8 4.2c-3.3 2.5-11.3 8.4-7.7 17.4s18.6 4.2 20.7-2.5c-.1.1.8-2.2.8-2.2l.3-1.2-1.3-.5-1.5 1.7s-5.6 4.7-9.9 1.7-1.4-7.2-1-7.7 2.7-3.3 8.3-4.6c5.6-1.2 14 .8 14 .8l9.1 1.7s5 1 5.3 1c.2 0 1.9.2 1.9.2l-3.2 3.5s-4.6 4.4-7.8 10.8-4.7 9.7-4.7 9.7l-.3.5s-4.1.5-6.7 2c-2.6 1.6-4.2 4-4.2 4l-1.2 2.2 1.6 1.4s1.9-2.1 4.1-2.7c2.3-.6 4 .3 4 .3s-3.3 8.1-4.8 11.1c-1.6 2.9-4.2 8.3-7.9 12.3s-6.4 7.5-14.9 8.7-14.5-4.2-16.7-7c-2.2-2.7-3.5-6.8-3.7-9.7.1-2.7 1.7-5.6 1.7-5.6"/><path d="m94.1 72.3v-17.3l289.3-55 289.3 55v17.3l-289.3-53.5z" fill="#009640"/><g fill="#020203"><path d="m0 997.6v-16h8.9c4.5 0 13.3-.9 13.3-11.6v-96c0-5.8-.4-19.6-11.5-19.6h-10.3l11.6-20.4h683.8v20.4h-629.1c-5.8 0-13.3 1.3-13.3 12.9v30.2c1.3 3.5 6.7 4.9 9.3 4.9s12-.5 12-15.1h13.3v49.3h-13.3c0-4.5-4.9-11.9-11.5-12.4-5.4-.4-9.8 1.4-9.8 8.5v37.3c0 4 4.9 11.6 16.4 11.6h8v16z"/><path d="m394.7 877.6c0 3.6 4.4 7.1 7.1 8 3.1-2.2 19.6-11.5 32.4-11.5 12.9 0 19.6 6.7 19.6 16.9v48.9h-31.1v-37.9c0-4.9-1.3-8.4-5.8-8.9s-16 8.9-19.1 13.4v67.6c0 6.2 6.2 10.7 11.5 10.7v12.9h-54.2v-13.3c5.4 0 11.1-1.8 11.5-9.8v-75.2c0-2.2-3.6-8.4-11.5-8.4v-13.4zm372.1 0h-54.2v13.4c8 0 11.5 6.2 11.5 8.4v75.2c-.4 8-6.2 9.8-11.5 9.8v13.3h54.2v-13c-5.4 0-11.5-4.4-11.5-10.7v-73.7c0-5.4 5.8-9.3 11.5-9.3zm-492.1 0c0 3.6 4.4 7.1 7.1 8 3.1-2.2 19.6-11.5 32.4-11.5 12.9 0 19.6 6.7 19.6 16.9v48.9h-31.1v-37.9c0-4.9-1.3-8.4-5.8-8.9s-16 8.9-19.1 13.3v67.6c0 6.2 6.2 10.7 11.5 10.7v12.9h-54.2v-13.3c5.4 0 11.1-1.8 11.5-9.8v-75.2c0-2.2-3.6-8.4-11.5-8.4v-13.4h39.6zm360.5 0c0 3.6 4.5 7.1 7.1 8 3.1-2.2 19.6-11.5 32.4-11.5 12.9 0 19.6 6.7 19.6 16.9v48.9h-31.1v-37.9c0-4.9-1.3-8.4-5.8-8.9s-16 8.9-19.1 13.3v67.6c0 6.2 6.2 10.7 11.5 10.7v12.9h-54.2v-13.3c5.4 0 11.1-1.8 11.5-9.8v-75.2c0-2.2-3.6-8.4-11.5-8.4v-13.4h39.5v.1zm-423.6 82.8h-31.1v12c0 4.9-.9 15.1-15.5 15.1s-19.1-9.8-19.1-16.9v-25.3c0-2.3 1.8-5.4 4.9-5.4h60.9v-32.4c0-14.7-3.1-19.2-9.3-25.4s-28-8-37.8-8c-24.9 0-32.9 3.5-40 9.3s-9.8 17.8-9.8 26.7v50.3c0 13.3 2.7 22.7 11.1 31.1 8.5 8.4 34.2 8.4 39.6 8.4s23.1.5 36-8.9c12.8-9.3 10.1-30.6 10.1-30.6zm-65.8-55.2c0-7.1 2.2-17.8 17.8-17.8s16.9 11.6 16.9 17.8v16c0 2.9-2.4 5.3-5.4 5.4h-24c-2.6 0-5.4-2.2-5.4-4.9v-16.5zm422.3 68.9v-66.7c0-10.2-.5-20.9-11.1-28.5-10.7-7.6-28-7.1-34.7-7.1s-28.9 0-39.2 11.5c-10.2 11.6-8.5 22.7-8.5 27.1h29.1s2-15.1 6-19.1 14.6-8.5 22.9-1.3c3 2.6 4.3 6 4.3 9.8v19.2c0 1.8-1.8 4.5-4 4.5 0 0-40.5.9-47.6 6.2-7.1 5.4-13.3 8.9-13.3 28.4 0 19.6 4.9 27.1 10.7 31.1s8.5 8.5 34.7 8.5h62.3v-13c-5.4 0-11.6-4.4-11.6-10.6zm-31.1 7.6c0 1.1-1.8 2.7-3.1 2.7h-15.3c-10.9 0-14-9.3-14-15.1v-17.1c0-16.6 17.3-16.3 24.2-16.3s8.2 5.8 8.2 9.6zm200.6-127.4c15.6 0 28.2-4.7 28.2-10.6s-12.6-10.6-28.2-10.6c-15.5 0-28.1 4.7-28.1 10.6s12.6 10.6 28.1 10.6z"/></g></svg>